<svg xmlns="http://www.w3.org/2000/svg" version="1.1" xmlns:xlink="http://www.w3.org/1999/xlink" xmlns:svgjs="http://svgjs.dev/svgjs" width="1440" height="560" preserveAspectRatio="none" viewBox="0 0 1440 560"><g mask="url(&quot;#SvgjsMask1000&quot;)" fill="none"><rect width="1440" height="560" x="0" y="0" fill="#0e2a47"></rect><path d="M0 18.67C39.34 3.69 68.66 82.91 140 86.67C208.66 90.29 207.78 50.44 280 33.43C347.78 17.47 350.6 16.63 420 20.74C490.6 24.92 494.98 56.62 560 50C596.8 46.25 587.62 12.86 623.64 0C657.62 -12.14 661.82 0 700 0C770 0 770 0 840 0C897.28 0 901.93 -10.52 954.55 0C971.93 3.48 964.9 28 980 28C1003.42 28 1003.65 5.59 1031.58 0C1073.65 -8.41 1075.79 0 1120 0C1166.66 0 1207.44 -26.5 1213.33 0C1223 43.5 1137.97 87.21 1151.11 140C1161.3 180.92 1207.75 187.42 1260 187.42C1297.2 187.42 1318.72 175.23 1330 140C1348.72 81.52 1297.71 44.59 1320 0C1332.71 -25.41 1360 0 1400 0C1470 0 1505 -35 1540 0C1575 35 1540 70 1540 140C1540 145.38 1541.47 145.61 1540 150.77C1521.47 215.61 1500 221.58 1500 280C1500 302.04 1533.59 289.28 1540 311.7C1553.59 359.28 1540 365.85 1540 420C1540 490 1575 525 1540 560C1505 595 1470 560 1400 560C1330 560 1330 560 1260 560C1190 560 1190 560 1120 560C1050 560 1050 560 980 560C910 560 910 560 840 560C770 560 770 560 700 560C630 560 630 560 560 560C490 560 490 560 420 560C379.16 560 361.63 584.83 338.33 560C295.94 514.83 311.81 490.49 288.62 420C282.64 401.82 286.86 400.49 280 382.67C259.91 330.49 267.73 323.69 234.71 280C197.73 231.08 193.97 205.72 140 197.44C76.62 187.72 41.06 260.85 0 244C-28.94 232.13 0 192 0 140C0 79.34 -30.66 30.35 0 18.67" stroke="rgba(51, 121, 194, 0.58)" stroke-width="2"></path><path d="M840 100.23C801.33 100.23 778.35 104.67 756.67 140C723.2 194.55 723.19 211.76 729.7 280C736.55 351.76 748.03 355.27 783.4 420C803.18 456.2 815.47 481.86 840 481.86C860.6 481.86 858.58 451.79 873.67 420C906.48 350.86 933.38 350.84 935.79 280C938.15 210.84 917.6 204.54 883.21 140C869.71 114.66 864.6 100.23 840 100.23" stroke="rgba(51, 121, 194, 0.58)" stroke-width="2"></path><path d="M0 302.11C40.71 292.61 67.46 350 140 387.33C182 408.94 215.03 385.31 229.09 420C250.03 471.65 239.79 513.19 210 560C195.24 583.19 175 560 140 560C70 560 35 595 0 560C-35 525 0 490 0 420C0 361.06 -29.29 308.94 0 302.11" stroke="rgba(51, 121, 194, 0.58)" stroke-width="2"></path><path d="M1400 390.53C1389.41 390.53 1379.64 406.5 1379.64 420C1379.64 430.26 1389.56 438.06 1400 438.06C1411.17 438.06 1422.86 430.42 1422.86 420C1422.86 406.66 1411.02 390.53 1400 390.53" stroke="rgba(51, 121, 194, 0.58)" stroke-width="2"></path><path d="M0 135.33C5.32 135.33 14 137.82 14 140C14 142.15 5.49 144 0 144C-1.51 144 0 142 0 140C0 137.67 -1.68 135.33 0 135.33" stroke="rgba(51, 121, 194, 0.58)" stroke-width="2"></path><path d="M176 140C176 106.63 226.84 85.67 280 85.67C343.84 85.67 346.39 110.77 410 140C416.39 142.93 413.33 150 420 150C453.33 150 454.9 144.18 490 140C524.9 135.84 525.23 133.33 560 133.33C574.23 133.33 581.64 128.12 588 140C620.91 201.45 646.2 215.75 638.54 280C632.2 333.11 598.27 326.58 560 374.71C542.61 396.58 527.23 395.51 527.23 420C527.23 456.66 532.59 497 560 497C603.98 497 614.82 458.23 670 420C684.82 409.73 687.89 400 700 400C707.36 400 701.91 411.67 708.94 420C769.41 491.67 837.6 519.22 835 560C833.13 589.22 767.5 560 700 560C630 560 630 560 560 560C490 560 490 560 420 560C408.34 560 401.88 569.41 396.67 560C363.11 499.41 359.93 492.28 342.46 420C326.09 352.28 349.92 343.31 329 280C318.69 248.81 305.55 254.38 280 231C229.05 184.38 176 179.3 176 140" stroke="rgba(51, 121, 194, 0.58)" stroke-width="2"></path><path d="M840 60.45C784.63 60.45 721.78 15.99 721.78 0C721.78 -14.24 780.89 0 840 0C874.55 0 909.09 -12.98 909.09 0C909.09 17.25 878.28 60.45 840 60.45" stroke="rgba(51, 121, 194, 0.58)" stroke-width="2"></path><path d="M926.42 140C926.42 106.11 949.51 78 980 78C1019.7 78 1024.24 107.9 1066.8 140C1094.24 160.7 1089.96 167.46 1120 183.61C1186.56 219.39 1188.51 239.12 1260 243.87C1328.51 248.42 1349.28 190.52 1400 202.22C1427.62 208.59 1416.67 243.35 1416.67 280C1416.67 291.45 1407.24 288.35 1400 298.42C1356.91 358.35 1316 364.29 1316 420C1316 462.34 1356.94 494.52 1400 494.52C1446.09 494.52 1448.18 458.47 1494.29 420C1518.18 400.08 1526.39 377.74 1540 377.74C1549.24 377.74 1540 398.87 1540 420C1540 490 1575 525 1540 560C1505 595 1470 560 1400 560C1332.34 560 1330.91 562.88 1264.67 560C1260.91 559.84 1262.47 553.91 1260 553.91C1257.34 553.91 1258.46 559.82 1254.4 560C1188.46 562.87 1187.2 560 1120 560C1050 560 1050 560 980 560C915.84 560 865.72 591.72 851.67 560C834.71 521.72 881.74 488.34 917.97 420C945.91 367.3 946.54 367.17 980 317.92C994.1 297.17 1013.09 299.31 1013.09 280C1013.09 259.67 993.89 261.08 980 238.64C950.56 191.08 926.42 186.43 926.42 140" stroke="rgba(51, 121, 194, 0.58)" stroke-width="2"></path><path d="M1540 41.18C1515.24 41.18 1466.32 10.99 1466.32 0C1466.32 -9.6 1516.37 -13.21 1540 0C1553.21 7.38 1552.08 41.18 1540 41.18" stroke="rgba(51, 121, 194, 0.58)" stroke-width="2"></path><path d="M0 363.51C24.79 363.51 78.54 383.43 78.54 420C78.54 478.76 21.08 554.17 0 554.17C-18.19 554.17 0 487.09 0 420C0 391.75 -14.48 363.51 0 363.51" stroke="rgba(51, 121, 194, 0.58)" stroke-width="2"></path><path d="M276 140C276 138.72 277.96 137.91 280 137.91C282.46 137.91 285 138.69 285 140C285 141.48 282.41 143.5 280 143.5C277.91 143.5 276 141.51 276 140" stroke="rgba(51, 121, 194, 0.58)" stroke-width="2"></path><path d="M840 20.68C821.06 20.68 799.56 5.47 799.56 0C799.56 -4.87 819.78 0 840 0C851.82 0 863.64 -4.44 863.64 0C863.64 5.9 853.1 20.68 840 20.68" stroke="rgba(51, 121, 194, 0.58)" stroke-width="2"></path><path d="M969.63 140C969.63 133.44 974.1 128 980 128C987.68 128 996.8 133.03 996.8 140C996.8 148.58 987.33 159.09 980 159.09C973.74 159.09 969.63 148.99 969.63 140" stroke="rgba(51, 121, 194, 0.58)" stroke-width="2"></path><path d="M416.5 280C416.99 277 417.11 275 420 275C442.2 275 462.57 261.86 466.67 280C478.96 334.36 468.52 352.74 452.77 420C445.19 452.36 434.53 479.23 420 479.23C406.3 479.23 396.85 450.96 396.31 420C395.1 351.35 405.14 349.5 416.5 280" stroke="rgba(51, 121, 194, 0.58)" stroke-width="2"></path><path d="M1076.73 280C1096.59 258.74 1095.11 240.98 1120 240.98C1162.51 240.98 1191.19 242.83 1211.54 280C1240.19 332.34 1239.6 358.07 1218 420C1193.83 489.32 1180.05 527.78 1120 542.5C1061.05 556.95 1036.5 522.21 980 478.33C957.64 460.96 962.28 448.05 962.28 420C962.28 404.3 969.22 404.01 980 390.83C1026.45 334.01 1026.59 333.67 1076.73 280" stroke="rgba(51, 121, 194, 0.58)" stroke-width="2"></path><path d="M684.44 560C684.44 556.76 692.86 548.33 700 548.33C705.64 548.33 710 556.47 710 560C710 562.3 705 560 700 560C692.22 560 684.44 562.59 684.44 560" stroke="rgba(51, 121, 194, 0.58)" stroke-width="2"></path><path d="M1381.33 560C1381.33 557.62 1390.28 550.97 1400 550.97C1415.17 550.97 1431.11 557.7 1431.11 560C1431.11 562.21 1415.55 560 1400 560C1390.66 560 1381.33 562.14 1381.33 560" stroke="rgba(51, 121, 194, 0.58)" stroke-width="2"></path></g><defs><mask id="SvgjsMask1000"><rect width="1440" height="560" fill="#ffffff"></rect></mask></defs></svg>