<svg xmlns="http://www.w3.org/2000/svg" version="1.1" xmlns:xlink="http://www.w3.org/1999/xlink" xmlns:svgjs="http://svgjs.dev/svgjs" width="1440" height="560" preserveAspectRatio="none" viewBox="0 0 1440 560"><g clip-path="url(&quot;#SvgjsClipPath1002&quot;)" fill="none"><rect width="1440" height="560" x="0" y="0" fill="#0e2a47"></rect><circle r="93.335" cx="-24.67" cy="92.48" stroke="#365aa3" stroke-opacity="0.25" stroke-width="2"></circle><circle r="93.335" cx="435.03" cy="432" stroke="#365aa3" stroke-opacity="0.25" stroke-width="2"></circle><circle r="93.335" cx="689.78" cy="745.1" stroke="#365aa3" stroke-opacity="0.25" stroke-width="2"></circle><circle r="166.195" cx="296.55" cy="473.01" stroke="#365aa3" stroke-opacity="0.25" stroke-width="2"></circle><circle r="120.94" cx="902.15" cy="454.06" stroke="#365aa3" stroke-opacity="0.25" stroke-width="2"></circle><circle r="153.185" cx="1074.94" cy="223.24" stroke="#365aa3" stroke-opacity="0.25" stroke-width="2"></circle><circle r="90.265" cx="263.97" cy="336.8" stroke="#365aa3" stroke-opacity="0.25" stroke-width="2"></circle><circle r="185.01" cx="107.25" cy="470.53" stroke="#365aa3" stroke-opacity="0.25" stroke-width="2"></circle><circle r="83.395" cx="1355.6" cy="444.08" stroke="#365aa3" stroke-opacity="0.25" stroke-width="2"></circle><circle r="92.965" cx="523.06" cy="356.73" stroke="#365aa3" stroke-opacity="0.25" stroke-width="2"></circle><circle r="48.135" cx="387.89" cy="489.52" stroke="#365aa3" stroke-opacity="0.25" stroke-width="2"></circle><circle r="165.44" cx="637" cy="404.8" stroke="#365aa3" stroke-opacity="0.25" stroke-width="2"></circle><circle r="155.885" cx="965.19" cy="335.02" stroke="#365aa3" stroke-opacity="0.25" stroke-width="2"></circle><circle r="117.32" cx="168.57" cy="15.46" stroke="#365aa3" stroke-opacity="0.25" stroke-width="2"></circle><circle r="154.595" cx="1338.42" cy="318.41" stroke="#365aa3" stroke-opacity="0.25" stroke-width="2"></circle><circle r="130.625" cx="480" cy="503.58" stroke="#365aa3" stroke-opacity="0.25" stroke-width="2"></circle><circle r="160.4" cx="560.05" cy="369.93" stroke="#365aa3" stroke-opacity="0.25" stroke-width="2"></circle><circle r="81.845" cx="1414.65" cy="422.35" stroke="#365aa3" stroke-opacity="0.25" stroke-width="2"></circle><circle r="158.23" cx="551.49" cy="117.6" stroke="#365aa3" stroke-opacity="0.25" stroke-width="2"></circle><circle r="101.67" cx="969.89" cy="225.82" stroke="#365aa3" stroke-opacity="0.25" stroke-width="2"></circle><circle r="114.4" cx="659.68" cy="482.61" stroke="#365aa3" stroke-opacity="0.25" stroke-width="2"></circle><circle r="179.625" cx="1063.9" cy="525.49" stroke="#365aa3" stroke-opacity="0.25" stroke-width="2"></circle><circle r="164.43" cx="781.03" cy="139.86" stroke="#365aa3" stroke-opacity="0.25" stroke-width="2"></circle><circle r="54.905" cx="389.28" cy="368.32" stroke="#365aa3" stroke-opacity="0.25" stroke-width="2"></circle><circle r="62.805" cx="757.44" cy="22.99" stroke="#365aa3" stroke-opacity="0.25" stroke-width="2"></circle><circle r="86.295" cx="1272.45" cy="102.51" stroke="#365aa3" stroke-opacity="0.25" stroke-width="2"></circle><circle r="181.5" cx="773.54" cy="248.35" stroke="#365aa3" stroke-opacity="0.25" stroke-width="2"></circle><circle r="88.285" cx="1249.05" cy="90.55" stroke="#365aa3" stroke-opacity="0.25" stroke-width="2"></circle><circle r="177.7" cx="1258.91" cy="91.28" stroke="#365aa3" stroke-opacity="0.25" stroke-width="2"></circle><circle r="131.44" cx="57.11" cy="272.04" stroke="#365aa3" stroke-opacity="0.25" stroke-width="2"></circle><circle r="102.14" cx="1120.08" cy="188.26" stroke="#365aa3" stroke-opacity="0.25" stroke-width="2"></circle><circle r="149.945" cx="457.74" cy="125.83" stroke="#365aa3" stroke-opacity="0.25" stroke-width="2"></circle><circle r="183.22" cx="1078.52" cy="50.9" stroke="#365aa3" stroke-opacity="0.25" stroke-width="2"></circle><circle r="52.705" cx="1215.98" cy="441.26" stroke="#365aa3" stroke-opacity="0.25" stroke-width="2"></circle><circle r="61.61" cx="233.88" cy="37.4" stroke="#365aa3" stroke-opacity="0.25" stroke-width="2"></circle><circle r="63.985" cx="267.6" cy="252.66" stroke="#365aa3" stroke-opacity="0.25" stroke-width="2"></circle><circle r="107.595" cx="435.01" cy="478.54" stroke="#365aa3" stroke-opacity="0.25" stroke-width="2"></circle><circle r="143.045" cx="329.01" cy="371.8" stroke="#365aa3" stroke-opacity="0.25" stroke-width="2"></circle><circle r="167.555" cx="747.12" cy="397.92" stroke="#365aa3" stroke-opacity="0.25" stroke-width="2"></circle><circle r="62.37" cx="402.32" cy="182.23" stroke="#365aa3" stroke-opacity="0.25" stroke-width="2"></circle></g><defs><clipPath id="SvgjsClipPath1002"><rect width="1440" height="560" x="0" y="0"></rect></clipPath></defs></svg>