<svg xmlns="http://www.w3.org/2000/svg" version="1.1" xmlns:xlink="http://www.w3.org/1999/xlink" xmlns:svgjs="http://svgjs.dev/svgjs" width="1440" height="560" preserveAspectRatio="none" viewBox="0 0 1440 560"><g mask="url(&quot;#SvgjsMask1000&quot;)" fill="none"><rect width="1440" height="560" x="0" y="0" fill="#0e2a47"></rect><path d="M17.35 426.96L82.3 464.46L82.3 539.46L17.35 576.96L-47.6 539.46L-47.6 464.46zM147.26 201.96L212.21 239.46L212.21 314.46L147.26 351.96L82.3 314.46L82.3 239.46zM407.07 426.96L472.03 464.46L472.03 539.46L407.07 576.96L342.12 539.46L342.12 464.46zM472.03 539.46L536.98 576.96L536.98 651.96L472.03 689.46L407.07 651.96L407.07 576.96zM731.84 314.46L796.8 351.96L796.8 426.96L731.84 464.46L666.89 426.96L666.89 351.96zM731.84 539.46L796.8 576.96L796.8 651.96L731.84 689.46L666.89 651.96L666.89 576.96zM861.75 314.46L926.7 351.96L926.7 426.96L861.75 464.46L796.79 426.96L796.79 351.96zM991.66 539.46L1056.61 576.96L1056.61 651.96L991.66 689.46L926.7 651.96L926.7 576.96zM1056.61 201.96L1121.56 239.46L1121.56 314.46L1056.61 351.96L991.66 314.46L991.66 239.46zM1121.56 314.46L1186.52 351.96L1186.52 426.96L1121.56 464.46L1056.61 426.96L1056.61 351.96zM1381.38 539.46L1446.33 576.96L1446.33 651.96L1381.38 689.46L1316.42 651.96L1316.42 576.96zM1446.33 426.96L1511.29 464.46L1511.29 539.46L1446.33 576.96L1381.38 539.46L1381.38 464.46z" stroke="#03305d" stroke-width="2"></path><path d="M9.85 426.96 a7.5 7.5 0 1 0 15 0 a7.5 7.5 0 1 0 -15 0zM74.8 464.46 a7.5 7.5 0 1 0 15 0 a7.5 7.5 0 1 0 -15 0zM74.8 539.46 a7.5 7.5 0 1 0 15 0 a7.5 7.5 0 1 0 -15 0zM9.85 576.96 a7.5 7.5 0 1 0 15 0 a7.5 7.5 0 1 0 -15 0zM-55.1 539.46 a7.5 7.5 0 1 0 15 0 a7.5 7.5 0 1 0 -15 0zM-55.1 464.46 a7.5 7.5 0 1 0 15 0 a7.5 7.5 0 1 0 -15 0zM139.76 201.96 a7.5 7.5 0 1 0 15 0 a7.5 7.5 0 1 0 -15 0zM204.71 239.46 a7.5 7.5 0 1 0 15 0 a7.5 7.5 0 1 0 -15 0zM204.71 314.46 a7.5 7.5 0 1 0 15 0 a7.5 7.5 0 1 0 -15 0zM139.76 351.96 a7.5 7.5 0 1 0 15 0 a7.5 7.5 0 1 0 -15 0zM74.8 314.46 a7.5 7.5 0 1 0 15 0 a7.5 7.5 0 1 0 -15 0zM74.8 239.46 a7.5 7.5 0 1 0 15 0 a7.5 7.5 0 1 0 -15 0zM399.57 426.96 a7.5 7.5 0 1 0 15 0 a7.5 7.5 0 1 0 -15 0zM464.53 464.46 a7.5 7.5 0 1 0 15 0 a7.5 7.5 0 1 0 -15 0zM464.53 539.46 a7.5 7.5 0 1 0 15 0 a7.5 7.5 0 1 0 -15 0zM399.57 576.96 a7.5 7.5 0 1 0 15 0 a7.5 7.5 0 1 0 -15 0zM334.62 539.46 a7.5 7.5 0 1 0 15 0 a7.5 7.5 0 1 0 -15 0zM334.62 464.46 a7.5 7.5 0 1 0 15 0 a7.5 7.5 0 1 0 -15 0zM529.48 576.96 a7.5 7.5 0 1 0 15 0 a7.5 7.5 0 1 0 -15 0zM529.48 651.96 a7.5 7.5 0 1 0 15 0 a7.5 7.5 0 1 0 -15 0zM464.53 689.46 a7.5 7.5 0 1 0 15 0 a7.5 7.5 0 1 0 -15 0zM399.57 651.96 a7.5 7.5 0 1 0 15 0 a7.5 7.5 0 1 0 -15 0zM724.34 314.46 a7.5 7.5 0 1 0 15 0 a7.5 7.5 0 1 0 -15 0zM789.3 351.96 a7.5 7.5 0 1 0 15 0 a7.5 7.5 0 1 0 -15 0zM789.3 426.96 a7.5 7.5 0 1 0 15 0 a7.5 7.5 0 1 0 -15 0zM724.34 464.46 a7.5 7.5 0 1 0 15 0 a7.5 7.5 0 1 0 -15 0zM659.39 426.96 a7.5 7.5 0 1 0 15 0 a7.5 7.5 0 1 0 -15 0zM659.39 351.96 a7.5 7.5 0 1 0 15 0 a7.5 7.5 0 1 0 -15 0zM724.34 539.46 a7.5 7.5 0 1 0 15 0 a7.5 7.5 0 1 0 -15 0zM789.3 576.96 a7.5 7.5 0 1 0 15 0 a7.5 7.5 0 1 0 -15 0zM789.3 651.96 a7.5 7.5 0 1 0 15 0 a7.5 7.5 0 1 0 -15 0zM724.34 689.46 a7.5 7.5 0 1 0 15 0 a7.5 7.5 0 1 0 -15 0zM659.39 651.96 a7.5 7.5 0 1 0 15 0 a7.5 7.5 0 1 0 -15 0zM659.39 576.96 a7.5 7.5 0 1 0 15 0 a7.5 7.5 0 1 0 -15 0zM854.25 314.46 a7.5 7.5 0 1 0 15 0 a7.5 7.5 0 1 0 -15 0zM919.2 351.96 a7.5 7.5 0 1 0 15 0 a7.5 7.5 0 1 0 -15 0zM919.2 426.96 a7.5 7.5 0 1 0 15 0 a7.5 7.5 0 1 0 -15 0zM854.25 464.46 a7.5 7.5 0 1 0 15 0 a7.5 7.5 0 1 0 -15 0zM789.29 426.96 a7.5 7.5 0 1 0 15 0 a7.5 7.5 0 1 0 -15 0zM789.29 351.96 a7.5 7.5 0 1 0 15 0 a7.5 7.5 0 1 0 -15 0zM984.16 539.46 a7.5 7.5 0 1 0 15 0 a7.5 7.5 0 1 0 -15 0zM1049.11 576.96 a7.5 7.5 0 1 0 15 0 a7.5 7.5 0 1 0 -15 0zM1049.11 651.96 a7.5 7.5 0 1 0 15 0 a7.5 7.5 0 1 0 -15 0zM984.16 689.46 a7.5 7.5 0 1 0 15 0 a7.5 7.5 0 1 0 -15 0zM919.2 651.96 a7.5 7.5 0 1 0 15 0 a7.5 7.5 0 1 0 -15 0zM919.2 576.96 a7.5 7.5 0 1 0 15 0 a7.5 7.5 0 1 0 -15 0zM1049.11 201.96 a7.5 7.5 0 1 0 15 0 a7.5 7.5 0 1 0 -15 0zM1114.06 239.46 a7.5 7.5 0 1 0 15 0 a7.5 7.5 0 1 0 -15 0zM1114.06 314.46 a7.5 7.5 0 1 0 15 0 a7.5 7.5 0 1 0 -15 0zM1049.11 351.96 a7.5 7.5 0 1 0 15 0 a7.5 7.5 0 1 0 -15 0zM984.16 314.46 a7.5 7.5 0 1 0 15 0 a7.5 7.5 0 1 0 -15 0zM984.16 239.46 a7.5 7.5 0 1 0 15 0 a7.5 7.5 0 1 0 -15 0zM1179.02 351.96 a7.5 7.5 0 1 0 15 0 a7.5 7.5 0 1 0 -15 0zM1179.02 426.96 a7.5 7.5 0 1 0 15 0 a7.5 7.5 0 1 0 -15 0zM1114.06 464.46 a7.5 7.5 0 1 0 15 0 a7.5 7.5 0 1 0 -15 0zM1049.11 426.96 a7.5 7.5 0 1 0 15 0 a7.5 7.5 0 1 0 -15 0zM1373.88 539.46 a7.5 7.5 0 1 0 15 0 a7.5 7.5 0 1 0 -15 0zM1438.83 576.96 a7.5 7.5 0 1 0 15 0 a7.5 7.5 0 1 0 -15 0zM1438.83 651.96 a7.5 7.5 0 1 0 15 0 a7.5 7.5 0 1 0 -15 0zM1373.88 689.46 a7.5 7.5 0 1 0 15 0 a7.5 7.5 0 1 0 -15 0zM1308.92 651.96 a7.5 7.5 0 1 0 15 0 a7.5 7.5 0 1 0 -15 0zM1308.92 576.96 a7.5 7.5 0 1 0 15 0 a7.5 7.5 0 1 0 -15 0zM1438.83 426.96 a7.5 7.5 0 1 0 15 0 a7.5 7.5 0 1 0 -15 0zM1503.79 464.46 a7.5 7.5 0 1 0 15 0 a7.5 7.5 0 1 0 -15 0zM1503.79 539.46 a7.5 7.5 0 1 0 15 0 a7.5 7.5 0 1 0 -15 0zM1373.88 464.46 a7.5 7.5 0 1 0 15 0 a7.5 7.5 0 1 0 -15 0z" fill="#03305d"></path><path d="M38.65 -15.73L81.95 9.27L81.95 59.27L38.65 84.27L-4.65 59.27L-4.65 9.27zM81.95 59.27L125.25 84.27L125.25 134.27L81.95 159.27L38.65 134.27L38.65 84.27zM81.95 359.27L125.25 384.27L125.25 434.27L81.95 459.27L38.65 434.27L38.65 384.27zM81.95 509.27L125.25 534.27L125.25 584.27L81.95 609.27L38.65 584.27L38.65 534.27zM168.56 59.27L211.86 84.27L211.86 134.27L168.56 159.27L125.25 134.27L125.25 84.27zM125.25 134.27L168.56 159.27L168.56 209.27L125.25 234.27L81.95 209.27L81.95 159.27zM125.25 434.27L168.56 459.27L168.56 509.27L125.25 534.27L81.95 509.27L81.95 459.27zM211.86 -15.73L255.16 9.27L255.16 59.27L211.86 84.27L168.56 59.27L168.56 9.27zM255.16 59.27L298.46 84.27L298.46 134.27L255.16 159.27L211.86 134.27L211.86 84.27zM211.86 284.27L255.16 309.27L255.16 359.27L211.86 384.27L168.56 359.27L168.56 309.27zM255.16 359.27L298.46 384.27L298.46 434.27L255.16 459.27L211.86 434.27L211.86 384.27zM255.16 509.27L298.46 534.27L298.46 584.27L255.16 609.27L211.86 584.27L211.86 534.27zM298.46 -15.73L341.77 9.27L341.77 59.27L298.46 84.27L255.16 59.27L255.16 9.27zM298.46 284.27L341.77 309.27L341.77 359.27L298.46 384.27L255.16 359.27L255.16 309.27zM298.46 434.27L341.77 459.27L341.77 509.27L298.46 534.27L255.16 509.27L255.16 459.27zM385.07 -15.73L428.37 9.27L428.37 59.27L385.07 84.27L341.77 59.27L341.77 9.27zM428.37 209.27L471.68 234.27L471.68 284.27L428.37 309.27L385.07 284.27L385.07 234.27zM385.07 434.27L428.37 459.27L428.37 509.27L385.07 534.27L341.77 509.27L341.77 459.27zM428.37 509.27L471.68 534.27L471.68 584.27L428.37 609.27L385.07 584.27L385.07 534.27zM471.68 -15.73L514.98 9.27L514.98 59.27L471.68 84.27L428.37 59.27L428.37 9.27zM514.98 209.27L558.28 234.27L558.28 284.27L514.98 309.27L471.68 284.27L471.68 234.27zM471.68 284.27L514.98 309.27L514.98 359.27L471.68 384.27L428.37 359.27L428.37 309.27zM514.98 509.27L558.28 534.27L558.28 584.27L514.98 609.27L471.68 584.27L471.68 534.27zM558.28 -15.73L601.58 9.27L601.58 59.27L558.28 84.27L514.98 59.27L514.98 9.27zM558.28 134.27L601.58 159.27L601.58 209.27L558.28 234.27L514.98 209.27L514.98 159.27zM601.58 209.27L644.88 234.27L644.88 284.27L601.58 309.27L558.28 284.27L558.28 234.27zM558.28 284.27L601.58 309.27L601.58 359.27L558.28 384.27L514.98 359.27L514.98 309.27zM601.58 359.27L644.88 384.27L644.88 434.27L601.58 459.27L558.28 434.27L558.28 384.27zM558.28 434.27L601.58 459.27L601.58 509.27L558.28 534.27L514.98 509.27L514.98 459.27zM601.58 509.27L644.88 534.27L644.88 584.27L601.58 609.27L558.28 584.27L558.28 534.27zM644.88 -15.73L688.19 9.27L688.19 59.27L644.88 84.27L601.58 59.27L601.58 9.27zM688.19 359.27L731.49 384.27L731.49 434.27L688.19 459.27L644.88 434.27L644.88 384.27zM731.49 434.27L774.79 459.27L774.79 509.27L731.49 534.27L688.19 509.27L688.19 459.27zM774.79 509.27L818.1 534.27L818.1 584.27L774.79 609.27L731.49 584.27L731.49 534.27zM818.1 284.27L861.4 309.27L861.4 359.27L818.1 384.27L774.79 359.27L774.79 309.27zM861.4 359.27L904.7 384.27L904.7 434.27L861.4 459.27L818.1 434.27L818.1 384.27zM861.4 509.27L904.7 534.27L904.7 584.27L861.4 609.27L818.1 584.27L818.1 534.27zM948 359.27L991.31 384.27L991.31 434.27L948 459.27L904.7 434.27L904.7 384.27zM991.31 -15.73L1034.61 9.27L1034.61 59.27L991.31 84.27L948 59.27L948 9.27zM1034.61 209.27L1077.91 234.27L1077.91 284.27L1034.61 309.27L991.31 284.27L991.31 234.27zM991.31 284.27L1034.61 309.27L1034.61 359.27L991.31 384.27L948 359.27L948 309.27zM1077.91 134.27L1121.21 159.27L1121.21 209.27L1077.91 234.27L1034.61 209.27L1034.61 159.27zM1121.21 209.27L1164.52 234.27L1164.52 284.27L1121.21 309.27L1077.91 284.27L1077.91 234.27zM1077.91 284.27L1121.21 309.27L1121.21 359.27L1077.91 384.27L1034.61 359.27L1034.61 309.27zM1121.21 509.27L1164.52 534.27L1164.52 584.27L1121.21 609.27L1077.91 584.27L1077.91 534.27zM1207.82 59.27L1251.12 84.27L1251.12 134.27L1207.82 159.27L1164.52 134.27L1164.52 84.27zM1164.52 284.27L1207.82 309.27L1207.82 359.27L1164.52 384.27L1121.21 359.27L1121.21 309.27zM1207.82 359.27L1251.12 384.27L1251.12 434.27L1207.82 459.27L1164.52 434.27L1164.52 384.27zM1164.52 434.27L1207.82 459.27L1207.82 509.27L1164.52 534.27L1121.21 509.27L1121.21 459.27zM1207.82 509.27L1251.12 534.27L1251.12 584.27L1207.82 609.27L1164.52 584.27L1164.52 534.27zM1251.12 -15.73L1294.42 9.27L1294.42 59.27L1251.12 84.27L1207.82 59.27L1207.82 9.27zM1294.42 59.27L1337.73 84.27L1337.73 134.27L1294.42 159.27L1251.12 134.27L1251.12 84.27zM1251.12 284.27L1294.42 309.27L1294.42 359.27L1251.12 384.27L1207.82 359.27L1207.82 309.27zM1337.73 284.27L1381.03 309.27L1381.03 359.27L1337.73 384.27L1294.42 359.27L1294.42 309.27zM1381.03 359.27L1424.33 384.27L1424.33 434.27L1381.03 459.27L1337.73 434.27L1337.73 384.27zM1337.73 434.27L1381.03 459.27L1381.03 509.27L1337.73 534.27L1294.42 509.27L1294.42 459.27zM1381.03 509.27L1424.33 534.27L1424.33 584.27L1381.03 609.27L1337.73 584.27L1337.73 534.27zM1424.33 -15.73L1467.63 9.27L1467.63 59.27L1424.33 84.27L1381.03 59.27L1381.03 9.27zM1424.33 134.27L1467.63 159.27L1467.63 209.27L1424.33 234.27L1381.03 209.27L1381.03 159.27zM1467.63 209.27L1510.94 234.27L1510.94 284.27L1467.63 309.27L1424.33 284.27L1424.33 234.27zM1424.33 284.27L1467.63 309.27L1467.63 359.27L1424.33 384.27L1381.03 359.27L1381.03 309.27zM1467.63 359.27L1510.94 384.27L1510.94 434.27L1467.63 459.27L1424.33 434.27L1424.33 384.27zM1467.63 509.27L1510.94 534.27L1510.94 584.27L1467.63 609.27L1424.33 584.27L1424.33 534.27z" stroke="rgba(6, 80, 156, 0.93)" stroke-width="2"></path></g><defs><mask id="SvgjsMask1000"><rect width="1440" height="560" fill="#ffffff"></rect></mask></defs></svg>