<svg xmlns="http://www.w3.org/2000/svg" version="1.1" xmlns:xlink="http://www.w3.org/1999/xlink" xmlns:svgjs="http://svgjs.dev/svgjs" width="1440" height="560" preserveAspectRatio="none" viewBox="0 0 1440 560"><g mask="url(&quot;#SvgjsMask1050&quot;)" fill="none"><rect width="1440" height="560" x="0" y="0" fill="#0e2a47"></rect><path d="M0,614.553C111.46,595.013,188.776,502.597,287.776,447.787C395.762,388.002,560.176,391.464,608.275,277.79C656.648,163.47,536.645,47.759,508.165,-73.063C482.98,-179.908,512.155,-299.582,450.731,-390.561C386.573,-485.591,282.492,-559.335,168.973,-575.468C59.698,-590.997,-39.2,-520.912,-139.3,-474.412C-225.23,-434.495,-298.297,-381.331,-373.374,-323.531C-467.97,-250.705,-587.691,-200.424,-636.629,-91.533C-691.016,29.483,-704.364,175.876,-652.748,298.1C-600.709,421.327,-481.219,503.144,-360.853,561.497C-249.192,615.63,-122.227,635.98,0,614.553" fill="#0c243c"></path><path d="M1440 1236.688C1566.997 1250.065 1698.699 1195.446 1793.128 1109.478 1881.979 1028.589 1914.603 904.4680000000001 1934.989 786.054 1951.975 687.391 1900.9859999999999 594.0889999999999 1899.091 493.993 1896.817 373.872 1987.147 243.113 1922.789 141.661 1859.6770000000001 42.17399999999998 1710.904 55.5 1598.51 20.166000000000054 1483.579-15.966000000000008 1366.868-114.231 1255.574-68.09699999999998 1142.705-21.309999999999945 1151.512 148.37900000000002 1069.884 239.293 985.913 332.81600000000003 812.703 344.134 777.193 464.703 742.3 583.178 838.433 699.992 903.235 805.1320000000001 961.694 899.981 1044.816 969.991 1131.649 1039.804 1228.654 1117.796 1316.215 1223.65 1440 1236.688" fill="#103052"></path></g><defs><mask id="SvgjsMask1050"><rect width="1440" height="560" fill="#ffffff"></rect></mask></defs></svg>