<svg xmlns="http://www.w3.org/2000/svg" version="1.1" xmlns:xlink="http://www.w3.org/1999/xlink" xmlns:svgjs="http://svgjs.dev/svgjs" width="1440" height="560" preserveAspectRatio="none" viewBox="0 0 1440 560"><g mask="url(&quot;#SvgjsMask1000&quot;)" fill="none"><rect width="1440" height="560" x="0" y="0" fill="#0e2a47"></rect><path d="M620.11 584.94C725.49 549.13 654.45 259.84 901.08 239.59 1147.71 219.34 1315.99 67.95 1463.01 65.99" stroke="rgba(51,121,194,0.58)" stroke-width="2"></path><path d="M932.51 625.56C1054.44 536.7 986.95 86.59 1196.22 82.75 1405.49 78.91 1575.84 343.95 1723.64 351.55" stroke="rgba(51,121,194,0.58)" stroke-width="2"></path><path d="M615.41 571.97C709.04 559.04 658.93 356.83 914.62 340.84 1170.3 324.85 1349.7 83.37 1513.03 77.64" stroke="rgba(51,121,194,0.58)" stroke-width="2"></path><path d="M348.65 577.3C507.91 511.16 516.61 36.19 751.66 17.49 986.71-1.21 953.17 87.49 1154.67 87.49 1356.17 87.49 1455.42 17.75 1557.68 17.49" stroke="rgba(51,121,194,0.58)" stroke-width="2"></path><path d="M308.93 611.46C456.91 611.2 590.04 524.87 894.01 521.72 1197.99 518.57 1320.99 285.57 1479.1 280.92" stroke="rgba(51,121,194,0.58)" stroke-width="2"></path></g><defs><mask id="SvgjsMask1000"><rect width="1440" height="560" fill="#ffffff"></rect></mask></defs></svg>